{
  "accessors": [
    {
      "bufferView": 2,
      "componentType": 5126,
      "count": 266,
      "max": [
        11.20442008972168,
        11.20442008972168,
        0
      ],
      "min": [
        -11.20442008972168,
        -11.20442008972168,
        0
      ],
      "type": "VEC3"
    },
    {
      "bufferView": 2,
      "byteOffset": 3192,
      "componentType": 5126,
      "count": 266,
      "max": [
        0,
        0,
        1
      ],
      "min": [
        0,
        0,
        1
      ],
      "type": "VEC3"
    },
    {
      "bufferView": 3,
      "componentType": 5126,
      "count": 266,
      "max": [
        1,
        0.99986237287521362,
        0,
        1
      ],
      "min": [
        -0.99986237287521362,
        -0.99986237287521362,
        0,
        1
      ],
      "type": "VEC4"
    },
    {
      "bufferView": 1,
      "componentType": 5126,
      "count": 266,
      "max": [
        0.99244874715805054,
        477.52362060546875
      ],
      "min": [
        0.064233317971229553,
        -472.720947265625
      ],
      "type": "VEC2"
    },
    {
      "bufferView": 0,
      "componentType": 5125,
      "count": 792,
      "max": [
        265
      ],
      "min": [
        0
      ],
      "type": "SCALAR"
    },
    {
      "bufferView": 2,
      "byteOffset": 6384,
      "componentType": 5126,
      "count": 2143,
      "max": [
        5,
        5,
        5
      ],
      "min": [
        -5,
        -5,
        -5
      ],
      "type": "VEC3"
    },
    {
      "bufferView": 2,
      "byteOffset": 32100,
      "componentType": 5126,
      "count": 2143,
      "max": [
        1,
        1,
        1
      ],
      "min": [
        -1,
        -1,
        -1
      ],
      "type": "VEC3"
    },
    {
      "bufferView": 3,
      "byteOffset": 4256,
      "componentType": 5126,
      "count": 2143,
      "max": [
        1,
        1,
        0.024549407884478569,
        1
      ],
      "min": [
        -1,
        -1,
        -0.024549404159188271,
        1
      ],
      "type": "VEC4"
    },
    {
      "bufferView": 1,
      "byteOffset": 2128,
      "componentType": 5126,
      "count": 2143,
      "max": [
        0.99999940395355225,
        1
      ],
      "min": [
        0,
        -2.384185791015625e-07
      ],
      "type": "VEC2"
    },
    {
      "bufferView": 0,
      "byteOffset": 3168,
      "componentType": 5125,
      "count": 11904,
      "max": [
        2142
      ],
      "min": [
        0
      ],
      "type": "SCALAR"
    },
    {
      "bufferView": 2,
      "byteOffset": 57816,
      "componentType": 5126,
      "count": 2143,
      "max": [
        5,
        5,
        5
      ],
      "min": [
        -5,
        -5,
        -5
      ],
      "type": "VEC3"
    },
    {
      "bufferView": 2,
      "byteOffset": 83532,
      "componentType": 5126,
      "count": 2143,
      "max": [
        1,
        1,
        1
      ],
      "min": [
        -1,
        -1,
        -1
      ],
      "type": "VEC3"
    },
    {
      "bufferView": 3,
      "byteOffset": 38544,
      "componentType": 5126,
      "count": 2143,
      "max": [
        1,
        1,
        0.024549407884478569,
        1
      ],
      "min": [
        -1,
        -1,
        -0.024549404159188271,
        1
      ],
      "type": "VEC4"
    },
    {
      "bufferView": 1,
      "byteOffset": 19272,
      "componentType": 5126,
      "count": 2143,
      "max": [
        0.99999940395355225,
        1
      ],
      "min": [
        0,
        -2.384185791015625e-07
      ],
      "type": "VEC2"
    },
    {
      "bufferView": 0,
      "byteOffset": 50784,
      "componentType": 5125,
      "count": 11904,
      "max": [
        2142
      ],
      "min": [
        0
      ],
      "type": "SCALAR"
    },
    {
      "bufferView": 2,
      "byteOffset": 109248,
      "componentType": 5126,
      "count": 89,
      "max": [
        0.05000000074505806,
        0.05000000074505806,
        0.05000000074505806
      ],
      "min": [
        -0.05000000074505806,
        -0.05000000074505806,
        -0.05000000074505806
      ],
      "type": "VEC3"
    },
    {
      "bufferView": 2,
      "byteOffset": 110316,
      "componentType": 5126,
      "count": 89,
      "max": [
        1,
        1,
        1
      ],
      "min": [
        -1,
        -1,
        -1
      ],
      "type": "VEC3"
    },
    {
      "bufferView": 3,
      "byteOffset": 72832,
      "componentType": 5126,
      "count": 89,
      "max": [
        1,
        1,
        0.11755865812301636,
        1
      ],
      "min": [
        -1,
        -1,
        -0.11755864322185516,
        1
      ],
      "type": "VEC4"
    },
    {
      "bufferView": 0,
      "byteOffset": 98400,
      "componentType": 5125,
      "count": 360,
      "max": [
        88
      ],
      "min": [
        0
      ],
      "type": "SCALAR"
    },
    {
      "bufferView": 2,
      "byteOffset": 111384,
      "componentType": 5126,
      "count": 89,
      "max": [
        0.05000000074505806,
        0.05000000074505806,
        0.05000000074505806
      ],
      "min": [
        -0.05000000074505806,
        -0.05000000074505806,
        -0.05000000074505806
      ],
      "type": "VEC3"
    },
    {
      "bufferView": 2,
      "byteOffset": 112452,
      "componentType": 5126,
      "count": 89,
      "max": [
        1,
        1,
        1
      ],
      "min": [
        -1,
        -1,
        -1
      ],
      "type": "VEC3"
    },
    {
      "bufferView": 3,
      "byteOffset": 74256,
      "componentType": 5126,
      "count": 89,
      "max": [
        1,
        1,
        0.11755865812301636,
        1
      ],
      "min": [
        -1,
        -1,
        -0.11755864322185516,
        1
      ],
      "type": "VEC4"
    },
    {
      "bufferView": 0,
      "byteOffset": 99840,
      "componentType": 5125,
      "count": 360,
      "max": [
        88
      ],
      "min": [
        0
      ],
      "type": "SCALAR"
    },
    {
      "bufferView": 2,
      "byteOffset": 113520,
      "componentType": 5126,
      "count": 89,
      "max": [
        0.10000000149011612,
        0.10000000149011612,
        0.10000000149011612
      ],
      "min": [
        -0.10000000149011612,
        -0.10000000149011612,
        -0.10000000149011612
      ],
      "type": "VEC3"
    },
    {
      "bufferView": 2,
      "byteOffset": 114588,
      "componentType": 5126,
      "count": 89,
      "max": [
        1,
        1,
        1
      ],
      "min": [
        -1,
        -1,
        -1
      ],
      "type": "VEC3"
    },
    {
      "bufferView": 3,
      "byteOffset": 75680,
      "componentType": 5126,
      "count": 89,
      "max": [
        1,
        1,
        0.11755865067243576,
        1
      ],
      "min": [
        -1,
        -1,
        -0.11755862087011337,
        1
      ],
      "type": "VEC4"
    },
    {
      "bufferView": 0,
      "byteOffset": 101280,
      "componentType": 5125,
      "count": 360,
      "max": [
        88
      ],
      "min": [
        0
      ],
      "type": "SCALAR"
    },
    {
      "bufferView": 2,
      "byteOffset": 115656,
      "componentType": 5126,
      "count": 89,
      "max": [
        0.15000000596046448,
        0.15000000596046448,
        0.15000000596046448
      ],
      "min": [
        -0.15000000596046448,
        -0.15000000596046448,
        -0.15000000596046448
      ],
      "type": "VEC3"
    },
    {
      "bufferView": 2,
      "byteOffset": 116724,
      "componentType": 5126,
      "count": 89,
      "max": [
        1,
        1,
        1
      ],
      "min": [
        -1,
        -1,
        -1
      ],
      "type": "VEC3"
    },
    {
      "bufferView": 3,
      "byteOffset": 77104,
      "componentType": 5126,
      "count": 89,
      "max": [
        1,
        1,
        0.11755864322185516,
        1
      ],
      "min": [
        -1,
        -1,
        -0.11755862087011337,
        1
      ],
      "type": "VEC4"
    },
    {
      "bufferView": 0,
      "byteOffset": 102720,
      "componentType": 5125,
      "count": 360,
      "max": [
        88
      ],
      "min": [
        0
      ],
      "type": "SCALAR"
    },
    {
      "bufferView": 2,
      "byteOffset": 117792,
      "componentType": 5126,
      "count": 89,
      "max": [
        0.0080000003799796104,
        0.0080000003799796104,
        0.0080000003799796104
      ],
      "min": [
        -0.0080000003799796104,
        -0.0080000003799796104,
        -0.0080000003799796104
      ],
      "type": "VEC3"
    },
    {
      "bufferView": 2,
      "byteOffset": 118860,
      "componentType": 5126,
      "count": 89,
      "max": [
        1,
        1,
        1
      ],
      "min": [
        -1,
        -1,
        -1
      ],
      "type": "VEC3"
    },
    {
      "bufferView": 3,
      "byteOffset": 78528,
      "componentType": 5126,
      "count": 89,
      "max": [
        1,
        1,
        0.11755864322185516,
        1
      ],
      "min": [
        -1,
        -1,
        -0.11755866557359695,
        1
      ],
      "type": "VEC4"
    },
    {
      "bufferView": 0,
      "byteOffset": 104160,
      "componentType": 5125,
      "count": 360,
      "max": [
        88
      ],
      "min": [
        0
      ],
      "type": "SCALAR"
    },
    {
      "bufferView": 4,
      "componentType": 5126,
      "count": 22,
      "max": [
        6.6666665077209473
      ],
      "min": [
        0
      ],
      "type": "SCALAR"
    },
    {
      "bufferView": 5,
      "componentType": 5126,
      "count": 22,
      "max": [
        100,
        100,
        100
      ],
      "min": [
        99.999992370605469,
        99.999992370605469,
        100
      ],
      "type": "VEC3"
    },
    {
      "bufferView": 4,
      "byteOffset": 88,
      "componentType": 5126,
      "count": 387,
      "max": [
        6.6666665077209473
      ],
      "min": [
        0
      ],
      "type": "SCALAR"
    },
    {
      "bufferView": 6,
      "componentType": 5126,
      "count": 387,
      "max": [
        0.49208471179008484,
        0.70710676908493042,
        0.70710676908493042,
        0.70710676908493042
      ],
      "min": [
        -0.70710676908493042,
        -0.5,
        -0.5,
        -0.49208471179008484
      ],
      "type": "VEC4"
    },
    {
      "bufferView": 4,
      "byteOffset": 1636,
      "componentType": 5126,
      "count": 202,
      "max": [
        6.6666665077209473
      ],
      "min": [
        0
      ],
      "type": "SCALAR"
    },
    {
      "bufferView": 6,
      "byteOffset": 6192,
      "componentType": 5126,
      "count": 202,
      "max": [
        0.48489570617675781,
        0.70710527896881104,
        0.70710527896881104,
        0.70710676908493042
      ],
      "min": [
        -0.70710676908493042,
        -0.49929404258728027,
        -0.49929404258728027,
        -0.48489570617675781
      ],
      "type": "VEC4"
    }
  ],
  "animations": [
    {
      "channels": [
        {
          "sampler": 0,
          "target": {
            "node": 7,
            "path": "scale"
          }
        },
        {
          "sampler": 1,
          "target": {
            "node": 7,
            "path": "rotation"
          }
        },
        {
          "sampler": 2,
          "target": {
            "node": 9,
            "path": "rotation"
          }
        }
      ],
      "name": "Take 001",
      "samplers": [
        {
          "input": 35,
          "interpolation": "LINEAR",
          "output": 36
        },
        {
          "input": 37,
          "interpolation": "LINEAR",
          "output": 38
        },
        {
          "input": 39,
          "interpolation": "LINEAR",
          "output": 40
        }
      ]
    }
  ],
  "asset": {
    "extras": {
      "author": "SebastianSosnowski (https://sketchfab.com/SebastianSosnowski)",
      "license": "CC-BY-4.0 (http://creativecommons.org/licenses/by/4.0/)",
      "source": "https://sketchfab.com/models/9ab1eb3bb97f4e4a9305c0aae2d280a6",
      "title": "Saturn (planet)"
    },
    "generator": "Sketchfab-3.22.2",
    "version": "2.0"
  },
  "bufferViews": [
    {
      "buffer": 0,
      "byteLength": 105600,
      "byteOffset": 0,
      "name": "floatBufferViews",
      "target": 34963
    },
    {
      "buffer": 0,
      "byteLength": 36416,
      "byteOffset": 105600,
      "byteStride": 8,
      "name": "floatBufferViews",
      "target": 34962
    },
    {
      "buffer": 0,
      "byteLength": 119928,
      "byteOffset": 142016,
      "byteStride": 12,
      "name": "floatBufferViews",
      "target": 34962
    },
    {
      "buffer": 0,
      "byteLength": 79952,
      "byteOffset": 261944,
      "byteStride": 16,
      "name": "floatBufferViews",
      "target": 34962
    },
    {
      "buffer": 0,
      "byteLength": 2444,
      "byteOffset": 341896,
      "name": "floatBufferViews"
    },
    {
      "buffer": 0,
      "byteLength": 264,
      "byteOffset": 344340,
      "byteStride": 12,
      "name": "floatBufferViews"
    },
    {
      "buffer": 0,
      "byteLength": 9424,
      "byteOffset": 344604,
      "byteStride": 16,
      "name": "floatBufferViews"
    }
  ],
  "buffers": [
    {
      "byteLength": 354028,
      "uri": "scene.bin"
    }
  ],
  "images": [
    {
      "uri": "textures/Material_50_baseColor.jpg"
    },
    {
      "uri": "textures/Material_62_baseColor.png"
    },
    {
      "uri": "textures/Material_63_baseColor.png"
    }
  ],
  "materials": [
    {
      "alphaMode": "BLEND",
      "doubleSided": true,
      "emissiveFactor": [
        0.15800531295528356,
        0.15800531295528356,
        0.15800531295528356
      ],
      "name": "Material_63",
      "pbrMetallicRoughness": {
        "baseColorFactor": [
          1,
          1,
          1,
          1
        ],
        "baseColorTexture": {
          "index": 2,
          "texCoord": 0
        },
        "metallicFactor": 0,
        "roughnessFactor": 0.074393948599999996
      }
    },
    {
      "doubleSided": false,
      "name": "Material_50",
      "pbrMetallicRoughness": {
        "baseColorFactor": [
          1,
          1,
          1,
          1
        ],
        "baseColorTexture": {
          "index": 0,
          "texCoord": 0
        },
        "metallicFactor": 0,
        "roughnessFactor": 0.68651516079999997
      }
    },
    {
      "alphaMode": "BLEND",
      "doubleSided": false,
      "emissiveFactor": [
        0.014358191230264496,
        0.0055892192829174684,
        0.00057911518041088897
      ],
      "name": "Material_62",
      "pbrMetallicRoughness": {
        "baseColorFactor": [
          0.71075758499999997,
          0.71075758499999997,
          0.71075758499999997,
          0.23196970619999999
        ],
        "baseColorTexture": {
          "index": 1,
          "texCoord": 0
        },
        "metallicFactor": 0,
        "roughnessFactor": 0.57136364559999997
      }
    },
    {
      "doubleSided": true,
      "emissiveFactor": [
        1,
        1,
        1
      ],
      "name": "Material_64",
      "pbrMetallicRoughness": {
        "baseColorFactor": [
          0.86667549389999998,
          0.86667549389999998,
          0.86667549389999998,
          1
        ],
        "metallicFactor": 0,
        "roughnessFactor": 0
      }
    }
  ],
  "meshes": [
    {
      "name": "Saturn Rings_Material #63_0",
      "primitives": [
        {
          "attributes": {
            "NORMAL": 1,
            "POSITION": 0,
            "TANGENT": 2,
            "TEXCOORD_0": 3
          },
          "indices": 4,
          "material": 0,
          "mode": 4
        }
      ]
    },
    {
      "name": "Saturn_Material #50_0",
      "primitives": [
        {
          "attributes": {
            "NORMAL": 6,
            "POSITION": 5,
            "TANGENT": 7,
            "TEXCOORD_0": 8
          },
          "indices": 9,
          "material": 1,
          "mode": 4
        }
      ]
    },
    {
      "name": "Saturn Clouds_Material #62_0",
      "primitives": [
        {
          "attributes": {
            "NORMAL": 11,
            "POSITION": 10,
            "TANGENT": 12,
            "TEXCOORD_0": 13
          },
          "indices": 14,
          "material": 2,
          "mode": 4
        }
      ]
    },
    {
      "name": "Sphere Mimas_Material #64_0",
      "primitives": [
        {
          "attributes": {
            "NORMAL": 16,
            "POSITION": 15,
            "TANGENT": 17
          },
          "indices": 18,
          "material": 3,
          "mode": 4
        }
      ]
    },
    {
      "name": "Sphere Enceladus_Material #64_0",
      "primitives": [
        {
          "attributes": {
            "NORMAL": 20,
            "POSITION": 19,
            "TANGENT": 21
          },
          "indices": 22,
          "material": 3,
          "mode": 4
        }
      ]
    },
    {
      "name": "Sphere Dione_Material #64_0",
      "primitives": [
        {
          "attributes": {
            "NORMAL": 24,
            "POSITION": 23,
            "TANGENT": 25
          },
          "indices": 26,
          "material": 3,
          "mode": 4
        }
      ]
    },
    {
      "name": "Sphere Rhea_Material #64_0",
      "primitives": [
        {
          "attributes": {
            "NORMAL": 28,
            "POSITION": 27,
            "TANGENT": 29
          },
          "indices": 30,
          "material": 3,
          "mode": 4
        }
      ]
    },
    {
      "name": "Sphere Tethys_Material #64_0",
      "primitives": [
        {
          "attributes": {
            "NORMAL": 32,
            "POSITION": 31,
            "TANGENT": 33
          },
          "indices": 34,
          "material": 3,
          "mode": 4
        }
      ]
    }
  ],
  "nodes": [
    {
      "children": [
        1
      ],
      "name": "RootNode (gltf orientation matrix)",
      "rotation": [
        -0.70710678118654746,
        -0,
        -0,
        0.70710678118654757
      ]
    },
    {
      "children": [
        2
      ],
      "name": "RootNode (model correction matrix)"
    },
    {
      "children": [
        3
      ],
      "matrix": [
        1,
        0,
        0,
        0,
        0,
        0,
        1,
        0,
        0,
        -1,
        0,
        0,
        0,
        0,
        0,
        1
      ],
      "name": "56fb5d81d5a845599d5e60534f293915.fbx"
    },
    {
      "children": [
        4
      ],
      "name": ""
    },
    {
      "children": [
        5,
        7,
        9,
        11,
        13,
        15,
        17,
        19
      ],
      "name": "RootNode"
    },
    {
      "children": [
        6
      ],
      "name": "Saturn Rings",
      "rotation": [
        -0.7071068286895752,
        -0,
        0,
        0.7071068286895752
      ],
      "scale": [
        100,
        100,
        100
      ]
    },
    {
      "mesh": 0,
      "name": "Saturn Rings_Material #63_0"
    },
    {
      "children": [
        8
      ],
      "name": "Saturn",
      "rotation": [
        -0.7071068286895752,
        -0,
        0,
        0.7071068286895752
      ],
      "scale": [
        100,
        100,
        100
      ]
    },
    {
      "mesh": 1,
      "name": "Saturn_Material #50_0"
    },
    {
      "children": [
        10
      ],
      "name": "Saturn Clouds",
      "rotation": [
        -0.70707333087921143,
        -0.0068791164085268974,
        -0.0068791164085268974,
        0.70707333087921143
      ],
      "scale": [
        101,
        101,
        101
      ]
    },
    {
      "mesh": 2,
      "name": "Saturn Clouds_Material #62_0"
    },
    {
      "children": [
        12
      ],
      "name": "Sphere Mimas",
      "rotation": [
        -0.7071068286895752,
        -0,
        0,
        0.7071068286895752
      ],
      "scale": [
        100,
        100,
        100
      ],
      "translation": [
        -988.3157958984375,
        -7.152557373046875e-05,
        -1127.883544921875
      ]
    },
    {
      "mesh": 3,
      "name": "Sphere Mimas_Material #64_0"
    },
    {
      "children": [
        14
      ],
      "name": "Sphere Enceladus",
      "rotation": [
        -0.7071068286895752,
        -0,
        0,
        0.7071068286895752
      ],
      "scale": [
        100,
        100,
        100
      ],
      "translation": [
        1784.7322998046875,
        -7.152557373046875e-05,
        239.89329528808594
      ]
    },
    {
      "mesh": 4,
      "name": "Sphere Enceladus_Material #64_0"
    },
    {
      "children": [
        16
      ],
      "name": "Sphere Dione",
      "rotation": [
        -0.7071068286895752,
        -0,
        0,
        0.7071068286895752
      ],
      "scale": [
        100,
        100,
        100
      ],
      "translation": [
        -3011.732421875,
        -7.152557373046875e-05,
        -1085.334228515625
      ]
    },
    {
      "mesh": 5,
      "name": "Sphere Dione_Material #64_0"
    },
    {
      "children": [
        18
      ],
      "name": "Sphere Rhea",
      "rotation": [
        -0.7071068286895752,
        -0,
        0,
        0.7071068286895752
      ],
      "scale": [
        100,
        100,
        100
      ],
      "translation": [
        -2969.675048828125,
        -7.152557373046875e-05,
        -3375.37451171875
      ]
    },
    {
      "mesh": 6,
      "name": "Sphere Rhea_Material #64_0"
    },
    {
      "children": [
        20
      ],
      "name": "Sphere Tethys",
      "rotation": [
        -0.7071068286895752,
        -0,
        0,
        0.7071068286895752
      ],
      "scale": [
        100,
        100,
        100
      ],
      "translation": [
        396.36712646484375,
        -7.152557373046875e-05,
        2165.972412109375
      ]
    },
    {
      "mesh": 7,
      "name": "Sphere Tethys_Material #64_0"
    }
  ],
  "samplers": [
    {
      "magFilter": 9729,
      "minFilter": 9987,
      "wrapS": 10497,
      "wrapT": 10497
    }
  ],
  "scene": 0,
  "scenes": [
    {
      "name": "OSG_Scene",
      "nodes": [
        0
      ]
    }
  ],
  "textures": [
    {
      "sampler": 0,
      "source": 0
    },
    {
      "sampler": 0,
      "source": 1
    },
    {
      "sampler": 0,
      "source": 2
    }
  ]
}

