{
  "accessors": [
    {
      "bufferView": 2,
      "componentType": 5126,
      "count": 1566,
      "max": [
        0.88677740097045898,
        0.69035279750823975,
        0.85834890604019165
      ],
      "min": [
        -0.90797555446624756,
        -0.62674248218536377,
        -0.88626581430435181
      ],
      "type": "VEC3"
    },
    {
      "bufferView": 2,
      "byteOffset": 18792,
      "componentType": 5126,
      "count": 1566,
      "max": [
        0.99787116050720215,
        0.99972885847091675,
        0.99849981069564819
      ],
      "min": [
        -0.99672824144363403,
        -0.99949270486831665,
        -0.99748659133911133
      ],
      "type": "VEC3"
    },
    {
      "bufferView": 1,
      "componentType": 5126,
      "count": 1566,
      "max": [
        1,
        1
      ],
      "min": [
        0,
        0
      ],
      "type": "VEC2"
    },
    {
      "bufferView": 2,
      "byteOffset": 37584,
      "componentType": 5126,
      "count": 1566,
      "max": [
        0.071734368801116943,
        0.057096540927886963,
        0.090663820505142212
      ],
      "min": [
        -0.067483358085155487,
        -0.084774017333984375,
        -0.075150102376937866
      ],
      "type": "VEC3"
    },
    {
      "bufferView": 2,
      "byteOffset": 56376,
      "componentType": 5126,
      "count": 1566,
      "max": [
        0.13356292247772217,
        0.11307302117347717,
        0.17990872263908386
      ],
      "min": [
        -0.14297054708003998,
        -0.16993427276611328,
        -0.15375210344791412
      ],
      "type": "VEC3"
    },
    {
      "bufferView": 2,
      "byteOffset": 75168,
      "componentType": 5126,
      "count": 1566,
      "max": [
        0.18447393178939819,
        0.1677100658416748,
        0.26514866948127747
      ],
      "min": [
        -0.22451323270797729,
        -0.25375843048095703,
        -0.23348052799701691
      ],
      "type": "VEC3"
    },
    {
      "bufferView": 2,
      "byteOffset": 93960,
      "componentType": 5126,
      "count": 1566,
      "max": [
        0.2486145943403244,
        0.22369274497032166,
        0.34406217932701111
      ],
      "min": [
        -0.30980139970779419,
        -0.33479690551757812,
        -0.31196111440658569
      ],
      "type": "VEC3"
    },
    {
      "bufferView": 2,
      "byteOffset": 112752,
      "componentType": 5126,
      "count": 1566,
      "max": [
        0.33015725016593933,
        0.27694398164749146,
        0.41470673680305481
      ],
      "min": [
        -0.39631181955337524,
        -0.41421055793762207,
        -0.38691991567611694
      ],
      "type": "VEC3"
    },
    {
      "bufferView": 2,
      "byteOffset": 131544,
      "componentType": 5126,
      "count": 1566,
      "max": [
        0.41544541716575623,
        0.32591310143470764,
        0.47559598088264465
      ],
      "min": [
        -0.48146826028823853,
        -0.49524903297424316,
        -0.45631527900695801
      ],
      "type": "VEC3"
    },
    {
      "bufferView": 2,
      "byteOffset": 150336,
      "componentType": 5126,
      "count": 1566,
      "max": [
        0.50195586681365967,
        0.37064638733863831,
        0.5257335901260376
      ],
      "min": [
        -0.56280332803726196,
        -0.57232403755187988,
        -0.51843911409378052
      ],
      "type": "VEC3"
    },
    {
      "bufferView": 2,
      "byteOffset": 169128,
      "componentType": 5126,
      "count": 1566,
      "max": [
        0.58711230754852295,
        0.41961550712585449,
        0.56461012363433838
      ],
      "min": [
        -0.63810169696807861,
        -0.64455056190490723,
        -0.57198417186737061
      ],
      "type": "VEC3"
    },
    {
      "bufferView": 2,
      "byteOffset": 187920,
      "componentType": 5126,
      "count": 1566,
      "max": [
        0.66844731569290161,
        0.46281611919403076,
        0.59216678142547607
      ],
      "min": [
        -0.70550996065139771,
        -0.71130967140197754,
        -0.61607444286346436
      ],
      "type": "VEC3"
    },
    {
      "bufferView": 2,
      "byteOffset": 206712,
      "componentType": 5126,
      "count": 1566,
      "max": [
        0.74374568462371826,
        0.49881434440612793,
        0.60873746871948242
      ],
      "min": [
        -0.76360976696014404,
        -0.77864819765090942,
        -0.65026193857192993
      ],
      "type": "VEC3"
    },
    {
      "bufferView": 2,
      "byteOffset": 225504,
      "componentType": 5126,
      "count": 1566,
      "max": [
        0.81115394830703735,
        0.53207534551620483,
        0.6179090142250061
      ],
      "min": [
        -0.81145048141479492,
        -0.84540730714797974,
        -0.67449480295181274
      ],
      "type": "VEC3"
    },
    {
      "bufferView": 2,
      "byteOffset": 244296,
      "componentType": 5126,
      "count": 1566,
      "max": [
        0.86925375461578369,
        0.56049555540084839,
        0.70715385675430298
      ],
      "min": [
        -0.84854608774185181,
        -0.90632307529449463,
        -0.74379229545593262
      ],
      "type": "VEC3"
    },
    {
      "bufferView": 2,
      "byteOffset": 263088,
      "componentType": 5126,
      "count": 1566,
      "max": [
        0.91709446907043457,
        0.58789694309234619,
        0.79239380359649658
      ],
      "min": [
        -0.87484031915664673,
        -0.96123093366622925,
        -0.80591607093811035
      ],
      "type": "VEC3"
    },
    {
      "bufferView": 2,
      "byteOffset": 281880,
      "componentType": 5126,
      "count": 1566,
      "max": [
        0.95419007539749146,
        0.6134067177772522,
        0.87130731344223022
      ],
      "min": [
        -0.8906518816947937,
        -1.0101439952850342,
        -0.85946118831634521
      ],
      "type": "VEC3"
    },
    {
      "bufferView": 2,
      "byteOffset": 300672,
      "componentType": 5126,
      "count": 1566,
      "max": [
        0.98048430681228638,
        0.62882781028747559,
        0.94195187091827393
      ],
      "min": [
        -0.89660447835922241,
        -1.0532172918319702,
        -0.90355145931243896
      ],
      "type": "VEC3"
    },
    {
      "bufferView": 2,
      "byteOffset": 319464,
      "componentType": 5126,
      "count": 1566,
      "max": [
        0.99629586935043335,
        0.64552807807922363,
        1.0028411149978638
      ],
      "min": [
        -0.89355206489562988,
        -1.1019182205200195,
        -0.93773889541625977
      ],
      "type": "VEC3"
    },
    {
      "bufferView": 2,
      "byteOffset": 338256,
      "componentType": 5126,
      "count": 1566,
      "max": [
        1.0022485256195068,
        0.66094917058944702,
        1.0529786348342896
      ],
      "min": [
        -0.88250547647476196,
        -1.1449916362762451,
        -0.96197175979614258
      ],
      "type": "VEC3"
    },
    {
      "bufferView": 2,
      "byteOffset": 357048,
      "componentType": 5126,
      "count": 1566,
      "max": [
        0.99919605255126953,
        0.6628832221031189,
        1.0918552875518799
      ],
      "min": [
        -0.86456477642059326,
        -1.1824893951416016,
        -0.97654378414154053
      ],
      "type": "VEC3"
    },
    {
      "bufferView": 2,
      "byteOffset": 375840,
      "componentType": 5126,
      "count": 1566,
      "max": [
        0.98814946413040161,
        0.67751628160476685,
        1.119411826133728
      ],
      "min": [
        -0.9163438081741333,
        -1.2147560119628906,
        -0.98202967643737793
      ],
      "type": "VEC3"
    },
    {
      "bufferView": 2,
      "byteOffset": 394632,
      "componentType": 5126,
      "count": 1566,
      "max": [
        0.97020876407623291,
        0.67945033311843872,
        1.1359825134277344
      ],
      "min": [
        -0.9781724214553833,
        -1.2421884536743164,
        -0.97921669483184814
      ],
      "type": "VEC3"
    },
    {
      "bufferView": 2,
      "byteOffset": 413424,
      "componentType": 5126,
      "count": 1566,
      "max": [
        0.94650423526763916,
        0.68473970890045166,
        1.1422208547592163
      ],
      "min": [
        -1.0290833711624146,
        -1.2652151584625244,
        -0.96903610229492188
      ],
      "type": "VEC3"
    },
    {
      "bufferView": 2,
      "byteOffset": 432216,
      "componentType": 5126,
      "count": 1566,
      "max": [
        0.91814893484115601,
        0.68667376041412354,
        1.1390219926834106
      ],
      "min": [
        -1.0685597658157349,
        -1.2806446552276611,
        -0.95250177383422852
      ],
      "type": "VEC3"
    },
    {
      "bufferView": 2,
      "byteOffset": 451008,
      "componentType": 5126,
      "count": 1566,
      "max": [
        0.88620227575302124,
        0.68728059530258179,
        1.1274451017379761
      ],
      "min": [
        -1.0965414047241211,
        -1.3036713600158691,
        -0.93065559864044189
      ],
      "type": "VEC3"
    },
    {
      "bufferView": 2,
      "byteOffset": 469800,
      "componentType": 5126,
      "count": 1566,
      "max": [
        0.88063955307006836,
        0.68921464681625366,
        1.1086429357528687
      ],
      "min": [
        -1.1133677959442139,
        -1.3170952796936035,
        -0.90452313423156738
      ],
      "type": "VEC3"
    },
    {
      "bufferView": 2,
      "byteOffset": 488592,
      "componentType": 5126,
      "count": 1566,
      "max": [
        0.87211424112319946,
        0.68792897462844849,
        1.0838004350662231
      ],
      "min": [
        -1.1197023391723633,
        -1.3160526752471924,
        -0.92955732345581055
      ],
      "type": "VEC3"
    },
    {
      "bufferView": 2,
      "byteOffset": 507384,
      "componentType": 5126,
      "count": 1566,
      "max": [
        0.88767850399017334,
        0.68986302614212036,
        1.0540837049484253
      ],
      "min": [
        -1.1164541244506836,
        -1.3017984628677368,
        -0.9684339165687561
      ],
      "type": "VEC3"
    },
    {
      "bufferView": 2,
      "byteOffset": 526176,
      "componentType": 5126,
      "count": 1566,
      "max": [
        0.89887583255767822,
        0.68801355361938477,
        1.0206032991409302
      ],
      "min": [
        -1.1046985387802124,
        -1.2986974716186523,
        -0.99599051475524902
      ],
      "type": "VEC3"
    },
    {
      "bufferView": 2,
      "byteOffset": 544968,
      "componentType": 5126,
      "count": 1566,
      "max": [
        0.9056740403175354,
        0.68994760513305664,
        0.98438507318496704
      ],
      "min": [
        -1.0856064558029175,
        -1.2844433784484863,
        -1.0125612020492554
      ],
      "type": "VEC3"
    },
    {
      "bufferView": 2,
      "byteOffset": 563760,
      "componentType": 5126,
      "count": 1566,
      "max": [
        0.90797555446624756,
        0.68800121545791626,
        0.94635337591171265
      ],
      "min": [
        -1.0603805780410767,
        -1.2585440874099731,
        -1.0187995433807373
      ],
      "type": "VEC3"
    },
    {
      "bufferView": 2,
      "byteOffset": 582552,
      "componentType": 5126,
      "count": 1566,
      "max": [
        0.90797555446624756,
        0.68993526697158813,
        0.9073219895362854
      ],
      "min": [
        -1.0302054882049561,
        -1.2227621078491211,
        -1.0156006813049316
      ],
      "type": "VEC3"
    },
    {
      "bufferView": 2,
      "byteOffset": 601344,
      "componentType": 5126,
      "count": 1566,
      "max": [
        0.90797555446624756,
        0.68800121545791626,
        0.87889409065246582
      ],
      "min": [
        -0.99620866775512695,
        -1.1927049160003662,
        -1.0040237903594971
      ],
      "type": "VEC3"
    },
    {
      "bufferView": 2,
      "byteOffset": 620136,
      "componentType": 5126,
      "count": 1566,
      "max": [
        0.9149518609046936,
        0.68993526697158813,
        0.88441824913024902
      ],
      "min": [
        -0.95943164825439453,
        -1.1569228172302246,
        -0.98522162437438965
      ],
      "type": "VEC3"
    },
    {
      "bufferView": 2,
      "byteOffset": 638928,
      "componentType": 5126,
      "count": 1566,
      "max": [
        0.92090445756912231,
        0.68800121545791626,
        0.88626581430435181
      ],
      "min": [
        -0.92081320285797119,
        -1.113126277923584,
        -0.96037906408309937
      ],
      "type": "VEC3"
    },
    {
      "bufferView": 2,
      "byteOffset": 657720,
      "componentType": 5126,
      "count": 1566,
      "max": [
        0.91785204410552979,
        0.68993526697158813,
        0.88626581430435181
      ],
      "min": [
        -0.90229171514511108,
        -1.0632205009460449,
        -0.93066239356994629
      ],
      "type": "VEC3"
    },
    {
      "bufferView": 2,
      "byteOffset": 676512,
      "componentType": 5126,
      "count": 1566,
      "max": [
        0.90797555446624756,
        0.68800121545791626,
        0.88626581430435181
      ],
      "min": [
        -0.90892875194549561,
        -1.0141841173171997,
        -0.89718198776245117
      ],
      "type": "VEC3"
    },
    {
      "bufferView": 2,
      "byteOffset": 695304,
      "componentType": 5126,
      "count": 1566,
      "max": [
        0.90797555446624756,
        0.68993526697158813,
        0.88626581430435181
      ],
      "min": [
        -0.90717959403991699,
        -0.96427822113037109,
        -0.88619714975357056
      ],
      "type": "VEC3"
    },
    {
      "bufferView": 0,
      "componentType": 5125,
      "count": 6318,
      "max": [
        1565
      ],
      "min": [
        0
      ],
      "type": "SCALAR"
    },
    {
      "bufferView": 3,
      "componentType": 5126,
      "count": 37,
      "max": [
        1.5
      ],
      "min": [
        0
      ],
      "type": "SCALAR"
    },
    {
      "bufferView": 3,
      "byteOffset": 148,
      "componentType": 5126,
      "count": 1332,
      "max": [
        1
      ],
      "min": [
        0
      ],
      "type": "SCALAR"
    }
  ],
  "animations": [
    {
      "channels": [
        {
          "sampler": 0,
          "target": {
            "node": 6,
            "path": "weights"
          }
        }
      ],
      "name": "",
      "samplers": [
        {
          "input": 40,
          "interpolation": "LINEAR",
          "output": 41
        }
      ]
    }
  ],
  "asset": {
    "extras": {
      "author": "alexandra.m.neville (https://sketchfab.com/alexandra.m.neville)",
      "license": "CC-BY-4.0 (http://creativecommons.org/licenses/by/4.0/)",
      "source": "https://sketchfab.com/3d-models/simple-flower-loop-a9d02b903a494b60906d44d0c855f7a3",
      "title": "Simple Flower Loop"
    },
    "generator": "Sketchfab-10.10.1-rc1",
    "version": "2.0"
  },
  "bufferViews": [
    {
      "buffer": 0,
      "byteLength": 25272,
      "byteOffset": 0,
      "name": "floatBufferViews",
      "target": 34963
    },
    {
      "buffer": 0,
      "byteLength": 12528,
      "byteOffset": 25272,
      "byteStride": 8,
      "name": "floatBufferViews",
      "target": 34962
    },
    {
      "buffer": 0,
      "byteLength": 714096,
      "byteOffset": 37800,
      "byteStride": 12,
      "name": "floatBufferViews",
      "target": 34962
    },
    {
      "buffer": 0,
      "byteLength": 5476,
      "byteOffset": 751896,
      "name": "floatBufferViews"
    }
  ],
  "buffers": [
    {
      "byteLength": 757372,
      "uri": "scene.bin"
    }
  ],
  "extensionsUsed": [
    "KHR_materials_unlit"
  ],
  "images": [
    {
      "uri": "textures/timeshift4_baseColor.png"
    }
  ],
  "materials": [
    {
      "alphaMode": "BLEND",
      "doubleSided": true,
      "emissiveFactor": [
        0.011619449481252641,
        0.0097689702579839208,
        0.14961598592807163
      ],
      "extensions": {
        "KHR_materials_unlit": {}
      },
      "name": "timeshift4",
      "pbrMetallicRoughness": {
        "baseColorFactor": [
          1,
          1,
          1,
          0.79213255993530696
        ],
        "baseColorTexture": {
          "index": 0,
          "texCoord": 0
        },
        "metallicFactor": 0,
        "roughnessFactor": 1
      }
    }
  ],
  "meshes": [
    {
      "name": "timeshift4",
      "primitives": [
        {
          "attributes": {
            "NORMAL": 1,
            "POSITION": 0,
            "TEXCOORD_0": 2
          },
          "indices": 39,
          "material": 0,
          "mode": 4,
          "targets": [
            {
              "POSITION": 3
            },
            {
              "POSITION": 4
            },
            {
              "POSITION": 5
            },
            {
              "POSITION": 6
            },
            {
              "POSITION": 7
            },
            {
              "POSITION": 8
            },
            {
              "POSITION": 9
            },
            {
              "POSITION": 10
            },
            {
              "POSITION": 11
            },
            {
              "POSITION": 12
            },
            {
              "POSITION": 13
            },
            {
              "POSITION": 14
            },
            {
              "POSITION": 15
            },
            {
              "POSITION": 16
            },
            {
              "POSITION": 17
            },
            {
              "POSITION": 18
            },
            {
              "POSITION": 19
            },
            {
              "POSITION": 20
            },
            {
              "POSITION": 21
            },
            {
              "POSITION": 22
            },
            {
              "POSITION": 23
            },
            {
              "POSITION": 24
            },
            {
              "POSITION": 25
            },
            {
              "POSITION": 26
            },
            {
              "POSITION": 27
            },
            {
              "POSITION": 28
            },
            {
              "POSITION": 29
            },
            {
              "POSITION": 30
            },
            {
              "POSITION": 31
            },
            {
              "POSITION": 32
            },
            {
              "POSITION": 33
            },
            {
              "POSITION": 34
            },
            {
              "POSITION": 35
            },
            {
              "POSITION": 36
            },
            {
              "POSITION": 37
            },
            {
              "POSITION": 38
            }
          ]
        }
      ],
      "weights": [
        0,
        0,
        0,
        0,
        0,
        0,
        0,
        0,
        0,
        0,
        0,
        0,
        0,
        0,
        0,
        0,
        0,
        0,
        0,
        0,
        0,
        0,
        0,
        0,
        0,
        0,
        0,
        0,
        0,
        0,
        0,
        0,
        0,
        0,
        0,
        0
      ]
    }
  ],
  "nodes": [
    {
      "children": [
        1
      ],
      "name": "RootNode (gltf orientation matrix)",
      "rotation": [
        -0.70710678118654746,
        -0,
        -0,
        0.70710678118654757
      ]
    },
    {
      "children": [
        2
      ],
      "matrix": [
        0.044990370512807853,
        -0.11533612236309043,
        -3.3848944880022316,
        0,
        3.1555749337248926,
        1.2309281698856864,
        -2.5530789606408457e-11,
        0,
        1.2301056686803236,
        -3.1534663911159555,
        0.12380046278506285,
        0,
        -0.011013983748853207,
        0.043638892471790314,
        0.035615533590316772,
        1
      ],
      "name": "RootNode (model correction matrix)"
    },
    {
      "children": [
        3
      ],
      "name": "d9519426e61142ddacee8e1492ac5ef6.abc.cleaner.materialmerger.gles"
    },
    {
      "children": [
        4
      ],
      "matrix": [
        1,
        0,
        0,
        0,
        0,
        2.2204460492503131e-16,
        1,
        0,
        0,
        -1,
        2.2204460492503131e-16,
        0,
        0,
        0,
        0,
        1
      ],
      "name": ""
    },
    {
      "children": [
        5
      ],
      "name": ""
    },
    {
      "children": [
        6
      ],
      "name": "MorphMainGroup"
    },
    {
      "mesh": 0,
      "name": "timeshift4"
    }
  ],
  "samplers": [
    {
      "magFilter": 9729,
      "minFilter": 9987,
      "wrapS": 10497,
      "wrapT": 10497
    }
  ],
  "scene": 0,
  "scenes": [
    {
      "name": "OSG_Scene",
      "nodes": [
        0
      ]
    }
  ],
  "textures": [
    {
      "sampler": 0,
      "source": 0
    }
  ]
}

