{
  "accessors": [
    {
      "name": "dbxcg5_1_0_positions",
      "componentType": 5126,
      "count": 9180,
      "min": [
        -4.933300018310547,
        -0.021299999207258224,
        -4.024099826812744
      ],
      "max": [
        2.8901000022888184,
        7.00629997253418,
        3.4795000553131104
      ],
      "type": "VEC3",
      "bufferView": 0,
      "byteOffset": 0
    },
    {
      "name": "dbxcg5_1_0_normals",
      "componentType": 5126,
      "count": 9180,
      "min": [
        -0.9996798634529114,
        -0.9999704360961914,
        -0.9990169405937195
      ],
      "max": [
        0.9997716546058655,
        0.9995008707046509,
        0.9983012676239014
      ],
      "type": "VEC3",
      "bufferView": 1,
      "byteOffset": 0
    },
    {
      "name": "dbxcg5_1_0_texcoords",
      "componentType": 5126,
      "count": 9180,
      "min": [
        -0.9894000291824341,
        -5.140600204467773
      ],
      "max": [
        1.8032000064849854,
        1.8746000528335571
      ],
      "type": "VEC2",
      "bufferView": 2,
      "byteOffset": 0
    },
    {
      "name": "dbxcg5_1_0_indices",
      "componentType": 5123,
      "count": 45120,
      "min": [
        0
      ],
      "max": [
        9179
      ],
      "type": "SCALAR",
      "bufferView": 3,
      "byteOffset": 0
    },
    {
      "name": "dbxcg5_1_1_positions",
      "componentType": 5126,
      "count": 15758,
      "min": [
        -6.57420015335083,
        -0.975600004196167,
        -7.677299976348877
      ],
      "max": [
        6.462100028991699,
        8.594499588012695,
        6.655300140380859
      ],
      "type": "VEC3",
      "bufferView": 0,
      "byteOffset": 110160
    },
    {
      "name": "dbxcg5_1_1_normals",
      "componentType": 5126,
      "count": 15758,
      "min": [
        -0.9999915957450867,
        -0.9999628067016602,
        -0.9993659257888794
      ],
      "max": [
        0.9999234080314636,
        0.9999691247940063,
        0.9946760535240173
      ],
      "type": "VEC3",
      "bufferView": 1,
      "byteOffset": 110160
    },
    {
      "name": "dbxcg5_1_1_texcoords",
      "componentType": 5126,
      "count": 15758,
      "min": [
        0,
        0
      ],
      "max": [
        1,
        1
      ],
      "type": "VEC2",
      "bufferView": 2,
      "byteOffset": 73440
    },
    {
      "name": "dbxcg5_1_1_indices",
      "componentType": 5123,
      "count": 46494,
      "min": [
        0
      ],
      "max": [
        15757
      ],
      "type": "SCALAR",
      "bufferView": 3,
      "byteOffset": 90240
    },
    {
      "name": "dbxcg5_1_2_positions",
      "componentType": 5126,
      "count": 4240,
      "min": [
        -5.769499778747559,
        2.9560999870300293,
        -4.811200141906738
      ],
      "max": [
        3.777899980545044,
        7.813799858093262,
        3.4795000553131104
      ],
      "type": "VEC3",
      "bufferView": 0,
      "byteOffset": 299256
    },
    {
      "name": "dbxcg5_1_2_normals",
      "componentType": 5126,
      "count": 4240,
      "min": [
        -0.9993959665298462,
        -0.9996899962425232,
        -0.9996393918991089
      ],
      "max": [
        0.998279869556427,
        0.9979613423347473,
        0.9975156188011169
      ],
      "type": "VEC3",
      "bufferView": 1,
      "byteOffset": 299256
    },
    {
      "name": "dbxcg5_1_2_texcoords",
      "componentType": 5126,
      "count": 4240,
      "min": [
        0.0032999999821186066,
        0.0723000019788742
      ],
      "max": [
        1,
        1
      ],
      "type": "VEC2",
      "bufferView": 2,
      "byteOffset": 199504
    },
    {
      "name": "dbxcg5_1_2_indices",
      "componentType": 5123,
      "count": 20400,
      "min": [
        0
      ],
      "max": [
        4239
      ],
      "type": "SCALAR",
      "bufferView": 3,
      "byteOffset": 183228
    },
    {
      "name": "dbxcg5_1_3_positions",
      "componentType": 5126,
      "count": 120,
      "min": [
        -5.503499984741211,
        3.3812999725341797,
        -4.537199974060059
      ],
      "max": [
        3.33240008354187,
        7.572400093078613,
        2.513700008392334
      ],
      "type": "VEC3",
      "bufferView": 0,
      "byteOffset": 350136
    },
    {
      "name": "dbxcg5_1_3_normals",
      "componentType": 5126,
      "count": 120,
      "min": [
        -0.9594659805297852,
        -0.9876396059989929,
        -0.9682560563087463
      ],
      "max": [
        0.999031662940979,
        0.9815828204154968,
        0.9410955309867859
      ],
      "type": "VEC3",
      "bufferView": 1,
      "byteOffset": 350136
    },
    {
      "name": "dbxcg5_1_3_texcoords",
      "componentType": 5126,
      "count": 120,
      "min": [
        0,
        0.08389999717473984
      ],
      "max": [
        1,
        1
      ],
      "type": "VEC2",
      "bufferView": 2,
      "byteOffset": 233424
    },
    {
      "name": "dbxcg5_1_3_indices",
      "componentType": 5123,
      "count": 120,
      "min": [
        0
      ],
      "max": [
        119
      ],
      "type": "SCALAR",
      "bufferView": 3,
      "byteOffset": 224028
    },
    {
      "name": "dbxcg5_1_4_positions",
      "componentType": 5126,
      "count": 3900,
      "min": [
        -5.400300025939941,
        3.339400053024292,
        -3.946000099182129
      ],
      "max": [
        2.8343000411987305,
        7.880099773406982,
        4.22160005569458
      ],
      "type": "VEC3",
      "bufferView": 0,
      "byteOffset": 351576
    },
    {
      "name": "dbxcg5_1_4_normals",
      "componentType": 5126,
      "count": 3900,
      "min": [
        -0.9990818500518799,
        -0.9992618560791016,
        -0.9984111189842224
      ],
      "max": [
        0.9999147057533264,
        0.9997685551643372,
        0.9996079206466675
      ],
      "type": "VEC3",
      "bufferView": 1,
      "byteOffset": 351576
    },
    {
      "name": "dbxcg5_1_4_texcoords",
      "componentType": 5126,
      "count": 3900,
      "min": [
        0.0032999999821186066,
        0.0723000019788742
      ],
      "max": [
        1,
        1
      ],
      "type": "VEC2",
      "bufferView": 2,
      "byteOffset": 234384
    },
    {
      "name": "dbxcg5_1_4_indices",
      "componentType": 5123,
      "count": 19440,
      "min": [
        0
      ],
      "max": [
        3899
      ],
      "type": "SCALAR",
      "bufferView": 3,
      "byteOffset": 224268
    }
  ],
  "asset": {
    "generator": "obj2gltf",
    "version": "2.0"
  },
  "buffers": [
    {
      "name": "dbxc",
      "byteLength": 1414128,
      "uri": "data:application/octet-stream;base64,"
    }
  ],
  "bufferViews": [
    {
      "name": "bufferView_0",
      "buffer": 0,
      "byteLength": 398376,
      "byteOffset": 0,
      "byteStride": 12,
      "target": 34962
    },
    {
      "name": "bufferView_1",
      "buffer": 0,
      "byteLength": 398376,
      "byteOffset": 398376,
      "byteStride": 12,
      "target": 34962
    },
    {
      "name": "bufferView_2",
      "buffer": 0,
      "byteLength": 265584,
      "byteOffset": 796752,
      "byteStride": 8,
      "target": 34962
    },
    {
      "name": "bufferView_3",
      "buffer": 0,
      "byteLength": 263148,
      "byteOffset": 1062336,
      "target": 34963
    },
    {
      "buffer": 0,
      "byteOffset": 1325484,
      "byteLength": 28552
    },
    {
      "buffer": 0,
      "byteOffset": 1354036,
      "byteLength": 23032
    },
    {
      "buffer": 0,
      "byteOffset": 1377068,
      "byteLength": 8444
    },
    {
      "buffer": 0,
      "byteOffset": 1385512,
      "byteLength": 28614
    }
  ],
  "images": [
    {
      "name": "dbxc-y",
      "mimeType": "image/png",
      "bufferView": 4
    },
    {
      "name": "daxc-h",
      "mimeType": "image/png",
      "bufferView": 5
    },
    {
      "name": "dbxc-h3",
      "mimeType": "image/png",
      "bufferView": 6
    },
    {
      "name": "dbxc-h2",
      "mimeType": "image/png",
      "bufferView": 7
    }
  ],
  "materials": [
    {
      "name": "zg_Mat",
      "pbrMetallicRoughness": {
        "baseColorFactor": [
          0.3961,
          0.6,
          0.1765,
          1
        ],
        "metallicFactor": 0,
        "roughnessFactor": 1
      },
      "emissiveFactor": [
        0,
        0,
        0
      ],
      "alphaMode": "OPAQUE",
      "doubleSided": false
    },
    {
      "name": "dbxc_y",
      "pbrMetallicRoughness": {
        "baseColorTexture": {
          "index": 0
        },
        "baseColorFactor": [
          1,
          1,
          1,
          1
        ],
        "metallicFactor": 0,
        "roughnessFactor": 1
      },
      "emissiveFactor": [
        0,
        0,
        0
      ],
      "alphaMode": "OPAQUE",
      "doubleSided": false
    },
    {
      "name": "dbxc_h",
      "pbrMetallicRoughness": {
        "baseColorTexture": {
          "index": 1
        },
        "baseColorFactor": [
          1,
          1,
          1,
          1
        ],
        "metallicFactor": 0,
        "roughnessFactor": 1
      },
      "emissiveFactor": [
        0,
        0,
        0
      ],
      "alphaMode": "OPAQUE",
      "doubleSided": false
    },
    {
      "name": "dbxc_h3",
      "pbrMetallicRoughness": {
        "baseColorTexture": {
          "index": 2
        },
        "baseColorFactor": [
          1,
          1,
          1,
          1
        ],
        "metallicFactor": 0,
        "roughnessFactor": 1
      },
      "emissiveFactor": [
        0,
        0,
        0
      ],
      "alphaMode": "OPAQUE",
      "doubleSided": false
    },
    {
      "name": "dbxc_h2",
      "pbrMetallicRoughness": {
        "baseColorTexture": {
          "index": 3
        },
        "baseColorFactor": [
          1,
          1,
          1,
          1
        ],
        "metallicFactor": 0,
        "roughnessFactor": 1
      },
      "emissiveFactor": [
        0,
        0,
        0
      ],
      "alphaMode": "OPAQUE",
      "doubleSided": false
    }
  ],
  "meshes": [
    {
      "name": "dbxcg5_1",
      "primitives": [
        {
          "attributes": {
            "POSITION": 0,
            "NORMAL": 1,
            "TEXCOORD_0": 2
          },
          "indices": 3,
          "material": 0,
          "mode": 4
        },
        {
          "attributes": {
            "POSITION": 4,
            "NORMAL": 5,
            "TEXCOORD_0": 6
          },
          "indices": 7,
          "material": 1,
          "mode": 4
        },
        {
          "attributes": {
            "POSITION": 8,
            "NORMAL": 9,
            "TEXCOORD_0": 10
          },
          "indices": 11,
          "material": 2,
          "mode": 4
        },
        {
          "attributes": {
            "POSITION": 12,
            "NORMAL": 13,
            "TEXCOORD_0": 14
          },
          "indices": 15,
          "material": 3,
          "mode": 4
        },
        {
          "attributes": {
            "POSITION": 16,
            "NORMAL": 17,
            "TEXCOORD_0": 18
          },
          "indices": 19,
          "material": 4,
          "mode": 4
        }
      ]
    }
  ],
  "nodes": [
    {
      "name": "dbxcg5",
      "mesh": 0
    }
  ],
  "samplers": [
    {
      "magFilter": 9729,
      "minFilter": 9986,
      "wrapS": 10497,
      "wrapT": 10497
    }
  ],
  "scene": 0,
  "scenes": [
    {
      "nodes": [
        0
      ]
    }
  ],
  "textures": [
    {
      "name": "dbxc-y",
      "sampler": 0,
      "source": 0
    },
    {
      "name": "daxc-h",
      "sampler": 0,
      "source": 1
    },
    {
      "name": "dbxc-h3",
      "sampler": 0,
      "source": 2
    },
    {
      "name": "dbxc-h2",
      "sampler": 0,
      "source": 3
    }
  ]
}
