{
  "accessors": [
    {
      "name": "Teapot001_1_0_positions",
      "componentType": 5126,
      "count": 684,
      "min": [
        4.999998092651367,
        0,
        -40
      ],
      "max": [
        37.140625,
        15.75,
        -20.000001907348633
      ],
      "type": "VEC3",
      "bufferView": 0,
      "byteOffset": 0
    },
    {
      "name": "Teapot001_1_0_normals",
      "componentType": 5126,
      "count": 684,
      "min": [
        -0.9978037476539612,
        -1,
        -0.999891996383667
      ],
      "max": [
        0.9995982646942139,
        1,
        0.9998498558998108
      ],
      "type": "VEC3",
      "bufferView": 1,
      "byteOffset": 0
    },
    {
      "name": "Teapot001_1_0_texcoords",
      "componentType": 5126,
      "count": 684,
      "min": [
        0,
        -1
      ],
      "max": [
        2,
        1
      ],
      "type": "VEC2",
      "bufferView": 2,
      "byteOffset": 0
    },
    {
      "name": "Teapot001_1_0_indices",
      "componentType": 5123,
      "count": 3072,
      "min": [
        0
      ],
      "max": [
        683
      ],
      "type": "SCALAR",
      "bufferView": 3,
      "byteOffset": 0
    }
  ],
  "asset": {
    "generator": "obj2gltf",
    "version": "2.0"
  },
  "buffers": [
    {
      "name": "teapot",
      "byteLength": 28032,
      "uri": "data:application/octet-stream;base64,"
    }
  ],
  "bufferViews": [
    {
      "name": "bufferView_0",
      "buffer": 0,
      "byteLength": 8208,
      "byteOffset": 0,
      "byteStride": 12,
      "target": 34962
    },
    {
      "name": "bufferView_1",
      "buffer": 0,
      "byteLength": 8208,
      "byteOffset": 8208,
      "byteStride": 12,
      "target": 34962
    },
    {
      "name": "bufferView_2",
      "buffer": 0,
      "byteLength": 5472,
      "byteOffset": 16416,
      "byteStride": 8,
      "target": 34962
    },
    {
      "name": "bufferView_3",
      "buffer": 0,
      "byteLength": 6144,
      "byteOffset": 21888,
      "target": 34963
    }
  ],
  "materials": [
    {
      "name": "wire_027177088",
      "pbrMetallicRoughness": {
        "baseColorFactor": [
          0.1058823615,
          0.6941176653,
          0.3450980484,
          1
        ],
        "metallicFactor": 0,
        "roughnessFactor": 0.968
      },
      "emissiveFactor": [
        0,
        0,
        0
      ],
      "alphaMode": "OPAQUE",
      "doubleSided": false
    }
  ],
  "meshes": [
    {
      "name": "Teapot001_1",
      "primitives": [
        {
          "attributes": {
            "POSITION": 0,
            "NORMAL": 1,
            "TEXCOORD_0": 2
          },
          "indices": 3,
          "material": 0,
          "mode": 4
        }
      ]
    }
  ],
  "nodes": [
    {
      "name": "Teapot001",
      "mesh": 0
    }
  ],
  "scene": 0,
  "scenes": [
    {
      "nodes": [
        0
      ]
    }
  ]
}
