{
	"materials": [{
		"name": "仪表YB.bmp",
		"occlusionTexture": {
			"index": 0,
			"texCoord": 1
		},
		"pbrMetallicRoughness": {
			"baseColorTexture": {
				"index": 1,
				"texCoord": 0
			},
			"baseColorFactor": [1, 1, 1, 1],
			"metallicFactor": 0.099999994,
			"roughnessFactor": 1
		},
		"alphaMode": "OPAQUE"
	}, {
		"name": "仪表表面YB.bmp",
		"occlusionTexture": {
			"index": 0,
			"texCoord": 1
		},
		"pbrMetallicRoughness": {
			"baseColorTexture": {
				"index": 2,
				"texCoord": 0
			},
			"baseColorFactor": [1, 1, 1, 1],
			"metallicFactor": 0.099999994,
			"roughnessFactor": 1
		},
		"alphaMode": "OPAQUE"
	}],
	"images": [{
		"uri": "ECE8BD72C4474005CD8521FAFC61D011.jpg"
	}, {
		"uri": "B7D6C8A2A66208606ED34A8E5EA0A883.jpg"
	}, {
		"uri": "627B0218447B3EBEB804FF34B84E5306.jpg"
	}],
	"textures": [{
		"name": "YB_f_bmp.jpg",
		"sampler": 0,
		"source": 0
	}, {
		"name": "灰色.jpg",
		"sampler": 0,
		"source": 1
	}, {
		"name": "仪表表面.jpg",
		"sampler": 0,
		"source": 2
	}],
	"meshes": [{
		"name": "Cylinder001",
		"primitives": [{
			"material": 0,
			"mode": 4,
			"indices": 0,
			"attributes": {
				"COLOR_0": 3,
				"NORMAL": 2,
				"POSITION": 1,
				"TEXCOORD_0": 4,
				"TEXCOORD_1": 5
			}
		}, {
			"material": 1,
			"mode": 4,
			"indices": 6,
			"attributes": {
				"COLOR_0": 9,
				"NORMAL": 8,
				"POSITION": 7,
				"TEXCOORD_0": 10,
				"TEXCOORD_1": 11
			}
		}]
	}],
	"buffers": [{
		"byteLength": 39887,
		"uri": "10CA12BBC9FA4B66E638BD985EDCF6B5.bin"
	}],
	"bufferViews": [{
		"buffer": 0,
		"target": 34963,
		"byteLength": 2700,
		"byteOffset": 0
	}, {
		"buffer": 0,
		"target": 34962,
		"byteLength": 7332,
		"byteOffset": 2700
	}, {
		"buffer": 0,
		"target": 34962,
		"byteLength": 7332,
		"byteOffset": 10032
	}, {
		"buffer": 0,
		"target": 34962,
		"byteLength": 9776,
		"byteOffset": 17364
	}, {
		"buffer": 0,
		"target": 34962,
		"byteLength": 4888,
		"byteOffset": 27140
	}, {
		"buffer": 0,
		"target": 34962,
		"byteLength": 4888,
		"byteOffset": 32028
	}, {
		"buffer": 0,
		"target": 34963,
		"byteLength": 180,
		"byteOffset": 36916
	}, {
		"buffer": 0,
		"target": 34962,
		"byteLength": 384,
		"byteOffset": 37096
	}, {
		"buffer": 0,
		"target": 34962,
		"byteLength": 384,
		"byteOffset": 37480
	}, {
		"buffer": 0,
		"target": 34962,
		"byteLength": 512,
		"byteOffset": 37864
	}, {
		"buffer": 0,
		"target": 34962,
		"byteLength": 256,
		"byteOffset": 38376
	}, {
		"buffer": 0,
		"target": 34962,
		"byteLength": 256,
		"byteOffset": 38632
	}],
	"accessors": [{
		"componentType": 5123,
		"type": "SCALAR",
		"bufferView": 0,
		"byteOffset": 0,
		"count": 1350
	}, {
		"componentType": 5126,
		"type": "VEC3",
		"bufferView": 1,
		"byteOffset": 0,
		"count": 611,
		"min": [-0.0500000007450581, 0, -0.0147971417754889],
		"max": [0.0500000007450581, 0.123679235577583, 0.0147971343249083]
	}, {
		"componentType": 5126,
		"type": "VEC3",
		"bufferView": 2,
		"byteOffset": 0,
		"count": 611
	}, {
		"componentType": 5126,
		"type": "VEC4",
		"bufferView": 3,
		"byteOffset": 0,
		"count": 611
	}, {
		"componentType": 5126,
		"type": "VEC2",
		"bufferView": 4,
		"byteOffset": 0,
		"count": 611
	}, {
		"componentType": 5126,
		"type": "VEC2",
		"bufferView": 5,
		"byteOffset": 0,
		"count": 611
	}, {
		"componentType": 5123,
		"type": "SCALAR",
		"bufferView": 6,
		"byteOffset": 0,
		"count": 90
	}, {
		"componentType": 5126,
		"type": "VEC3",
		"bufferView": 7,
		"byteOffset": 0,
		"count": 32,
		"min": [-0.0459216348826885, 0.027757603675127, 0.0147971343249083],
		"max": [0.0459216348826885, 0.119600877165794, 0.0147971343249083]
	}, {
		"componentType": 5126,
		"type": "VEC3",
		"bufferView": 8,
		"byteOffset": 0,
		"count": 32
	}, {
		"componentType": 5126,
		"type": "VEC4",
		"bufferView": 9,
		"byteOffset": 0,
		"count": 32
	}, {
		"componentType": 5126,
		"type": "VEC2",
		"bufferView": 10,
		"byteOffset": 0,
		"count": 32
	}, {
		"componentType": 5126,
		"type": "VEC2",
		"bufferView": 11,
		"byteOffset": 0,
		"count": 32
	}],
	"nodes": [{
		"name": "RootNode",
		"translation": [0, 0, 0],
		"rotation": [0, 0, 0, 1],
		"scale": [1, 1, 1],
		"children": [1]
	}, {
		"name": "body",
		"translation": [0, 0, -0.00241993647068739],
		"rotation": [-0.70710676908493, 0, 0, 0.70710676908493],
		"scale": [1, 1, 1],
		"children": [2]
	}, {
		"name": "Cylinder001",
		"translation": [0, 0, 0],
		"rotation": [0.707106828689575, 0, 0, 0.707106709480286],
		"scale": [1, 1, 1],
		"mesh": 0
	}],
	"asset": {
		"generator": "FBX2glTF",
		"version": "2.0"
	},
	"scene": 0,
	"scenes": [{
		"name": "Root Scene",
		"nodes": [0]
	}],
	"samplers": [{}]
}
