{
    "asset" : {
        "generator" : "Khronos glTF Blender I/O v1.4.40",
        "version" : "2.0"
    },
    "scene" : 0,
    "scenes" : [
        {
            "name" : "Scene",
            "nodes" : [
                6
            ]
        }
    ],
    "nodes" : [
        {
            "mesh" : 0,
            "name" : "board01_board_0.002"
        },
        {
            "mesh" : 1,
            "name" : "board01_metal_0.002"
        },
        {
            "children" : [
                0,
                1
            ],
            "name" : "board01.002"
        },
        {
            "children" : [
                2
            ],
            "name" : "SignBoard.002"
        },
        {
            "children" : [
                3
            ],
            "name" : "RootNode.002"
        },
        {
            "children" : [
                4
            ],
            "name" : "a6a54d37bc504c43b22e3b0fbf5ff2a0.fbx.002",
            "rotation" : [
                0.7071068286895752,
                0,
                0,
                0.7071068286895752
            ]
        },
        {
            "children" : [
                5
            ],
            "name" : "Sketchfab_model.002",
            "rotation" : [
                -0.7071068286895752,
                0,
                0,
                0.7071068286895752
            ]
        }
    ],
    "materials" : [
        {
            "alphaMode" : "BLEND",
            "doubleSided" : true,
            "emissiveFactor" : [
                1,
                1,
                1
            ],
            "emissiveTexture" : {
                "index" : 0,
                "texCoord" : 0
            },
            "name" : "board.002",
            "normalTexture" : {
                "index" : 1,
                "texCoord" : 0
            },
            "pbrMetallicRoughness" : {
                "baseColorTexture" : {
                    "index" : 2,
                    "texCoord" : 0
                },
                "metallicFactor" : 0.6475747227668762,
                "metallicRoughnessTexture" : {
                    "index" : 3,
                    "texCoord" : 0
                }
            }
        },
        {
            "doubleSided" : true,
            "name" : "metal.002",
            "normalTexture" : {
                "index" : 4,
                "texCoord" : 0
            },
            "pbrMetallicRoughness" : {
                "baseColorTexture" : {
                    "index" : 5,
                    "texCoord" : 0
                },
                "metallicFactor" : 0.5438529253005981,
                "metallicRoughnessTexture" : {
                    "index" : 6,
                    "texCoord" : 0
                }
            }
        }
    ],
    "meshes" : [
        {
            "name" : "board01_board_0.002",
            "primitives" : [
                {
                    "attributes" : {
                        "POSITION" : 0,
                        "NORMAL" : 1,
                        "TEXCOORD_0" : 2
                    },
                    "indices" : 3,
                    "material" : 0
                }
            ]
        },
        {
            "name" : "board01_metal_0.002",
            "primitives" : [
                {
                    "attributes" : {
                        "POSITION" : 4,
                        "NORMAL" : 5,
                        "TEXCOORD_0" : 6
                    },
                    "indices" : 7,
                    "material" : 1
                }
            ]
        }
    ],
    "textures" : [
        {
            "sampler" : 0,
            "source" : 0
        },
        {
            "sampler" : 0,
            "source" : 1
        },
        {
            "sampler" : 0,
            "source" : 2
        },
        {
            "sampler" : 0,
            "source" : 3
        },
        {
            "sampler" : 0,
            "source" : 4
        },
        {
            "sampler" : 0,
            "source" : 5
        },
        {
            "sampler" : 0,
            "source" : 6
        }
    ],
    "images" : [
        {
            "bufferView" : 4,
            "mimeType" : "image/jpeg",
            "name" : "board_emissive"
        },
        {
            "bufferView" : 5,
            "mimeType" : "image/png",
            "name" : "board_normal"
        },
        {
            "bufferView" : 6,
            "mimeType" : "image/png",
            "name" : "board_baseColor"
        },
        {
            "bufferView" : 7,
            "mimeType" : "image/png",
            "name" : "board_metallicRoughness"
        },
        {
            "bufferView" : 12,
            "mimeType" : "image/png",
            "name" : "metal_normal"
        },
        {
            "bufferView" : 13,
            "mimeType" : "image/jpeg",
            "name" : "metal_baseColor"
        },
        {
            "bufferView" : 14,
            "mimeType" : "image/png",
            "name" : "metal_metallicRoughness"
        }
    ],
    "accessors" : [
        {
            "bufferView" : 0,
            "componentType" : 5126,
            "count" : 80,
            "max" : [
                -19.757816314697266,
                29.03081703186035,
                -12.122132301330566
            ],
            "min" : [
                -22.325347900390625,
                21.93252944946289,
                -12.257116317749023
            ],
            "type" : "VEC3"
        },
        {
            "bufferView" : 1,
            "componentType" : 5126,
            "count" : 80,
            "type" : "VEC3"
        },
        {
            "bufferView" : 2,
            "componentType" : 5126,
            "count" : 80,
            "type" : "VEC2"
        },
        {
            "bufferView" : 3,
            "componentType" : 5123,
            "count" : 108,
            "type" : "SCALAR"
        },
        {
            "bufferView" : 8,
            "componentType" : 5126,
            "count" : 286,
            "max" : [
                -19.51689338684082,
                32.02592849731445,
                -12.005790710449219
            ],
            "min" : [
                -24.343399047851562,
                19.02166748046875,
                -12.282493591308594
            ],
            "type" : "VEC3"
        },
        {
            "bufferView" : 9,
            "componentType" : 5126,
            "count" : 286,
            "type" : "VEC3"
        },
        {
            "bufferView" : 10,
            "componentType" : 5126,
            "count" : 286,
            "type" : "VEC2"
        },
        {
            "bufferView" : 11,
            "componentType" : 5123,
            "count" : 360,
            "type" : "SCALAR"
        }
    ],
    "bufferViews" : [
        {
            "buffer" : 0,
            "byteLength" : 960,
            "byteOffset" : 0
        },
        {
            "buffer" : 0,
            "byteLength" : 960,
            "byteOffset" : 960
        },
        {
            "buffer" : 0,
            "byteLength" : 640,
            "byteOffset" : 1920
        },
        {
            "buffer" : 0,
            "byteLength" : 216,
            "byteOffset" : 2560
        },
        {
            "buffer" : 0,
            "byteLength" : 52042,
            "byteOffset" : 2776
        },
        {
            "buffer" : 0,
            "byteLength" : 89904,
            "byteOffset" : 54820
        },
        {
            "buffer" : 0,
            "byteLength" : 73873,
            "byteOffset" : 144724
        },
        {
            "buffer" : 0,
            "byteLength" : 32796,
            "byteOffset" : 218600
        },
        {
            "buffer" : 0,
            "byteLength" : 3432,
            "byteOffset" : 251396
        },
        {
            "buffer" : 0,
            "byteLength" : 3432,
            "byteOffset" : 254828
        },
        {
            "buffer" : 0,
            "byteLength" : 2288,
            "byteOffset" : 258260
        },
        {
            "buffer" : 0,
            "byteLength" : 720,
            "byteOffset" : 260548
        },
        {
            "buffer" : 0,
            "byteLength" : 37076,
            "byteOffset" : 261268
        },
        {
            "buffer" : 0,
            "byteLength" : 18456,
            "byteOffset" : 298344
        },
        {
            "buffer" : 0,
            "byteLength" : 14426,
            "byteOffset" : 316800
        }
    ],
    "samplers" : [
        {
            "magFilter" : 9729,
            "minFilter" : 9986
        }
    ],
    "buffers" : [
        {
            "byteLength" : 331228,
            "uri" : "data:application/octet-stream;base64,"
        }
    ]
}
