{
	"asset":{
		"generator":"Khronos glTF Blender I/O v3.5.30",
		"version":"2.0"
	},
	"scene":0,
	"scenes":[
		{
			"name":"Scene",
			"nodes":[
				5
			]
		}
	],
	"nodes":[
		{
			"mesh":0,
			"name":"armLeft",
			"translation":[
				-0.3023240864276886,
				0.25285816192626953,
				-0.0013804072514176369
			]
		},
		{
			"mesh":1,
			"name":"armRight",
			"scale":[
				1.164958119392395,
				1.164958119392395,
				1.164958119392395
			],
			"translation":[
				0.1294350028038025,
				0.25285816192626953,
				-0.0013804035261273384
			]
		},
		{
			"mesh":2,
			"name":"body",
			"scale":[
				1.164958119392395,
				1.164958119392395,
				1.164958119392395
			],
			"translation":[
				-0.08644463121891022,
				0.31004008650779724,
				0.02718660980463028
			]
		},
		{
			"mesh":3,
			"name":"head",
			"scale":[
				0.3028891086578369,
				0.3028891086578369,
				0.3028891086578369
			],
			"translation":[
				-0.08644463121891022,
				0.6506820321083069,
				-0.0463748574256897
			]
		},
		{
			"mesh":4,
			"name":"legLeft",
			"scale":[
				1.164958119392395,
				1.164958119392395,
				1.164958119392395
			],
			"translation":[
				-0.17288914322853088,
				0,
				0
			]
		},
		{
			"children":[
				0,
				1,
				2,
				3,
				4
			],
			"mesh":5,
			"name":"legRight",
			"scale":[
				0.8583999872207642,
				0.8583999872207642,
				0.8583999872207642
			],
			"translation":[
				0.07420408725738525,
				0.09955285489559174,
				-0.012691820040345192
			]
		}
	],
	"materials":[
		{
			"name":"crystal",
			"pbrMetallicRoughness":{
				"baseColorFactor":[
					0.18623177707195282,
					0.8773584961891174,
					0.5934362411499023,
					1
				],
				"roughnessFactor":0.6456692814826965
			}
		},
		{
			"name":"metal",
			"pbrMetallicRoughness":{
				"baseColorFactor":[
					0.843137264251709,
					0.8705882430076599,
					0.9098039269447327,
					1
				],
				"roughnessFactor":0.6062992215156555
			}
		},
		{
			"name":"metalRed",
			"pbrMetallicRoughness":{
				"baseColorFactor":[
					1,
					0.6285242438316345,
					0.20283019542694092,
					1
				],
				"roughnessFactor":0.6141732335090637
			}
		},
		{
			"name":"metalDark",
			"pbrMetallicRoughness":{
				"baseColorFactor":[
					0.6750622987747192,
					0.7100219130516052,
					0.7735849022865295,
					1
				]
			}
		},
		{
			"name":"dark",
			"pbrMetallicRoughness":{
				"baseColorFactor":[
					0.27450981736183167,
					0.2980392277240753,
					0.34117648005485535,
					1
				]
			}
		}
	],
	"meshes":[
		{
			"name":"Mesh armLeft",
			"primitives":[
				{
					"attributes":{
						"POSITION":0,
						"TEXCOORD_0":1,
						"NORMAL":2
					},
					"indices":3,
					"material":0
				},
				{
					"attributes":{
						"POSITION":4,
						"TEXCOORD_0":5,
						"NORMAL":6
					},
					"indices":7,
					"material":1
				},
				{
					"attributes":{
						"POSITION":8,
						"TEXCOORD_0":9,
						"NORMAL":10
					},
					"indices":11,
					"material":2
				}
			]
		},
		{
			"name":"Mesh armRight",
			"primitives":[
				{
					"attributes":{
						"POSITION":12,
						"TEXCOORD_0":13,
						"NORMAL":14
					},
					"indices":15,
					"material":0
				},
				{
					"attributes":{
						"POSITION":16,
						"TEXCOORD_0":17,
						"NORMAL":18
					},
					"indices":19,
					"material":2
				},
				{
					"attributes":{
						"POSITION":20,
						"TEXCOORD_0":21,
						"NORMAL":22
					},
					"indices":7,
					"material":1
				}
			]
		},
		{
			"name":"Mesh body",
			"primitives":[
				{
					"attributes":{
						"POSITION":23,
						"TEXCOORD_0":24,
						"NORMAL":25
					},
					"indices":26,
					"material":3
				},
				{
					"attributes":{
						"POSITION":27,
						"TEXCOORD_0":28,
						"NORMAL":29
					},
					"indices":30,
					"material":1
				},
				{
					"attributes":{
						"POSITION":31,
						"TEXCOORD_0":32,
						"NORMAL":33
					},
					"indices":34,
					"material":2
				}
			]
		},
		{
			"name":"Mesh head",
			"primitives":[
				{
					"attributes":{
						"POSITION":35,
						"TEXCOORD_0":36,
						"NORMAL":37
					},
					"indices":38,
					"material":0
				},
				{
					"attributes":{
						"POSITION":39,
						"TEXCOORD_0":40,
						"NORMAL":41
					},
					"indices":42,
					"material":4
				},
				{
					"attributes":{
						"POSITION":43,
						"TEXCOORD_0":44,
						"NORMAL":45
					},
					"indices":46,
					"material":1
				}
			]
		},
		{
			"name":"Mesh legLeft",
			"primitives":[
				{
					"attributes":{
						"POSITION":47,
						"TEXCOORD_0":48,
						"NORMAL":49
					},
					"indices":50,
					"material":3
				},
				{
					"attributes":{
						"POSITION":51,
						"TEXCOORD_0":52,
						"NORMAL":53
					},
					"indices":54,
					"material":4
				},
				{
					"attributes":{
						"POSITION":55,
						"TEXCOORD_0":56,
						"NORMAL":57
					},
					"indices":58,
					"material":1
				}
			]
		},
		{
			"name":"Mesh legRight",
			"primitives":[
				{
					"attributes":{
						"POSITION":59,
						"TEXCOORD_0":60,
						"NORMAL":61
					},
					"indices":62,
					"material":4
				},
				{
					"attributes":{
						"POSITION":63,
						"TEXCOORD_0":64,
						"NORMAL":65
					},
					"indices":66,
					"material":3
				},
				{
					"attributes":{
						"POSITION":67,
						"TEXCOORD_0":68,
						"NORMAL":69
					},
					"indices":58,
					"material":1
				}
			]
		}
	],
	"accessors":[
		{
			"bufferView":0,
			"componentType":5126,
			"count":26,
			"max":[
				0.06443492323160172,
				0.027252718806266785,
				0.08116583526134491
			],
			"min":[
				-0.0655650720000267,
				-0.20938971638679504,
				-0.10137336701154709
			],
			"type":"VEC3"
		},
		{
			"bufferView":1,
			"componentType":5126,
			"count":26,
			"type":"VEC2"
		},
		{
			"bufferView":2,
			"componentType":5126,
			"count":26,
			"type":"VEC3"
		},
		{
			"bufferView":3,
			"componentType":5123,
			"count":42,
			"type":"SCALAR"
		},
		{
			"bufferView":4,
			"componentType":5126,
			"count":8,
			"max":[
				0.06443492323160172,
				0.182406485080719,
				0.0811658427119255
			],
			"min":[
				-0.0655650720000267,
				0.11740648746490479,
				-0.04883415997028351
			],
			"type":"VEC3"
		},
		{
			"bufferView":5,
			"componentType":5126,
			"count":8,
			"type":"VEC2"
		},
		{
			"bufferView":6,
			"componentType":5126,
			"count":8,
			"type":"VEC3"
		},
		{
			"bufferView":7,
			"componentType":5123,
			"count":12,
			"type":"SCALAR"
		},
		{
			"bufferView":8,
			"componentType":5126,
			"count":18,
			"max":[
				0.06443492323160172,
				0.182406485080719,
				0.0811658427119255
			],
			"min":[
				-0.0655650720000267,
				-0.006393760442733765,
				-0.04883415997028351
			],
			"type":"VEC3"
		},
		{
			"bufferView":9,
			"componentType":5126,
			"count":18,
			"type":"VEC2"
		},
		{
			"bufferView":10,
			"componentType":5126,
			"count":18,
			"type":"VEC3"
		},
		{
			"bufferView":11,
			"componentType":5123,
			"count":30,
			"type":"SCALAR"
		},
		{
			"bufferView":12,
			"componentType":5126,
			"count":26,
			"max":[
				0.05628107115626335,
				0.023393720388412476,
				0.06967275589704514
			],
			"min":[
				-0.0553109310567379,
				-0.17974011600017548,
				-0.08701890707015991
			],
			"type":"VEC3"
		},
		{
			"bufferView":13,
			"componentType":5126,
			"count":26,
			"type":"VEC2"
		},
		{
			"bufferView":14,
			"componentType":5126,
			"count":26,
			"type":"VEC3"
		},
		{
			"bufferView":15,
			"componentType":5123,
			"count":42,
			"type":"SCALAR"
		},
		{
			"bufferView":16,
			"componentType":5126,
			"count":18,
			"max":[
				0.05628107115626335,
				0.1565777212381363,
				0.06967275589704514
			],
			"min":[
				-0.0553109310567379,
				-0.005488410592079163,
				-0.04191924259066582
			],
			"type":"VEC3"
		},
		{
			"bufferView":17,
			"componentType":5126,
			"count":18,
			"type":"VEC2"
		},
		{
			"bufferView":18,
			"componentType":5126,
			"count":18,
			"type":"VEC3"
		},
		{
			"bufferView":19,
			"componentType":5123,
			"count":30,
			"type":"SCALAR"
		},
		{
			"bufferView":20,
			"componentType":5126,
			"count":8,
			"max":[
				0.05628107115626335,
				0.1565777212381363,
				0.06967275589704514
			],
			"min":[
				-0.0553109310567379,
				0.10078172385692596,
				-0.04191924259066582
			],
			"type":"VEC3"
		},
		{
			"bufferView":21,
			"componentType":5126,
			"count":8,
			"type":"VEC2"
		},
		{
			"bufferView":22,
			"componentType":5126,
			"count":8,
			"type":"VEC3"
		},
		{
			"bufferView":23,
			"componentType":5126,
			"count":52,
			"max":[
				0.12999999523162842,
				0.16749277710914612,
				0.18935483694076538
			],
			"min":[
				-0.12999999523162842,
				-0.14250722527503967,
				-0.14064516127109528
			],
			"type":"VEC3"
		},
		{
			"bufferView":24,
			"componentType":5126,
			"count":52,
			"type":"VEC2"
		},
		{
			"bufferView":25,
			"componentType":5126,
			"count":52,
			"type":"VEC3"
		},
		{
			"bufferView":26,
			"componentType":5123,
			"count":84,
			"type":"SCALAR"
		},
		{
			"bufferView":27,
			"componentType":5126,
			"count":42,
			"max":[
				0.12999999523162842,
				0.16749277710914612,
				0.18935483694076538
			],
			"min":[
				-0.12999999523162842,
				-0.08148929476737976,
				-0.14064516127109528
			],
			"type":"VEC3"
		},
		{
			"bufferView":28,
			"componentType":5126,
			"count":42,
			"type":"VEC2"
		},
		{
			"bufferView":29,
			"componentType":5126,
			"count":42,
			"type":"VEC3"
		},
		{
			"bufferView":30,
			"componentType":5123,
			"count":66,
			"type":"SCALAR"
		},
		{
			"bufferView":31,
			"componentType":5126,
			"count":34,
			"max":[
				0.12999999523162842,
				0.11749276518821716,
				0.08935483545064926
			],
			"min":[
				-0.12999999523162842,
				-0.08148929476737976,
				-0.14064516127109528
			],
			"type":"VEC3"
		},
		{
			"bufferView":32,
			"componentType":5126,
			"count":34,
			"type":"VEC2"
		},
		{
			"bufferView":33,
			"componentType":5126,
			"count":34,
			"type":"VEC3"
		},
		{
			"bufferView":34,
			"componentType":5123,
			"count":66,
			"type":"SCALAR"
		},
		{
			"bufferView":35,
			"componentType":5126,
			"count":135,
			"max":[
				0.7307692170143127,
				0.7118681073188782,
				0.7019230723381042
			],
			"min":[
				-0.7307692170143127,
				-0.6727473139762878,
				-0.29807692766189575
			],
			"type":"VEC3"
		},
		{
			"bufferView":36,
			"componentType":5126,
			"count":135,
			"type":"VEC2"
		},
		{
			"bufferView":37,
			"componentType":5126,
			"count":135,
			"type":"VEC3"
		},
		{
			"bufferView":38,
			"componentType":5123,
			"count":282,
			"type":"SCALAR"
		},
		{
			"bufferView":39,
			"componentType":5126,
			"count":4,
			"max":[
				0.1339634358882904,
				-0.4606623649597168,
				-0.29807692766189575
			],
			"min":[
				-0.1339634358882904,
				-0.5540261268615723,
				-0.29807692766189575
			],
			"type":"VEC3"
		},
		{
			"bufferView":40,
			"componentType":5126,
			"count":4,
			"type":"VEC2"
		},
		{
			"bufferView":41,
			"componentType":5126,
			"count":4,
			"type":"VEC3"
		},
		{
			"bufferView":42,
			"componentType":5123,
			"count":6,
			"type":"SCALAR"
		},
		{
			"bufferView":43,
			"componentType":5126,
			"count":8,
			"max":[
				0.35570403933525085,
				-0.12353712320327759,
				-0.29807692766189575
			],
			"min":[
				-0.35570403933525085,
				-0.3548279106616974,
				-0.29807692766189575
			],
			"type":"VEC3"
		},
		{
			"bufferView":44,
			"componentType":5126,
			"count":8,
			"type":"VEC2"
		},
		{
			"bufferView":45,
			"componentType":5126,
			"count":8,
			"type":"VEC3"
		},
		{
			"bufferView":46,
			"componentType":5123,
			"count":12,
			"type":"SCALAR"
		},
		{
			"bufferView":47,
			"componentType":5126,
			"count":20,
			"max":[
				0.05579598248004913,
				0.12363115698099136,
				0.06848782300949097
			],
			"min":[
				-0.05579601973295212,
				0.029281072318553925,
				-0.05310417711734772
			],
			"type":"VEC3"
		},
		{
			"bufferView":48,
			"componentType":5126,
			"count":20,
			"type":"VEC2"
		},
		{
			"bufferView":49,
			"componentType":5126,
			"count":20,
			"type":"VEC3"
		},
		{
			"bufferView":50,
			"componentType":5123,
			"count":30,
			"type":"SCALAR"
		},
		{
			"bufferView":51,
			"componentType":5126,
			"count":34,
			"max":[
				0.05579598248004913,
				0.029281072318553925,
				0.08848781883716583
			],
			"min":[
				-0.05579601973295212,
				-0.09955284744501114,
				-0.08730817586183548
			],
			"type":"VEC3"
		},
		{
			"bufferView":52,
			"componentType":5126,
			"count":34,
			"type":"VEC2"
		},
		{
			"bufferView":53,
			"componentType":5126,
			"count":34,
			"type":"VEC3"
		},
		{
			"bufferView":54,
			"componentType":5123,
			"count":60,
			"type":"SCALAR"
		},
		{
			"bufferView":55,
			"componentType":5126,
			"count":4,
			"max":[
				0.05579598248004913,
				-0.09955284744501114,
				0.08848781883716583
			],
			"min":[
				-0.05579601973295212,
				-0.09955284744501114,
				-0.08730817586183548
			],
			"type":"VEC3"
		},
		{
			"bufferView":56,
			"componentType":5126,
			"count":4,
			"type":"VEC2"
		},
		{
			"bufferView":57,
			"componentType":5126,
			"count":4,
			"type":"VEC3"
		},
		{
			"bufferView":58,
			"componentType":5123,
			"count":6,
			"type":"SCALAR"
		},
		{
			"bufferView":59,
			"componentType":5126,
			"count":34,
			"max":[
				0.0650000274181366,
				0.03411120921373367,
				0.10308459401130676
			],
			"min":[
				-0.06499996781349182,
				-0.11597488820552826,
				-0.10171037167310715
			],
			"type":"VEC3"
		},
		{
			"bufferView":60,
			"componentType":5126,
			"count":34,
			"type":"VEC2"
		},
		{
			"bufferView":61,
			"componentType":5126,
			"count":34,
			"type":"VEC3"
		},
		{
			"bufferView":62,
			"componentType":5123,
			"count":60,
			"type":"SCALAR"
		},
		{
			"bufferView":63,
			"componentType":5126,
			"count":20,
			"max":[
				0.0650000274181366,
				0.14402510225772858,
				0.07978543639183044
			],
			"min":[
				-0.06499996781349182,
				0.03411120921373367,
				-0.06186413764953613
			],
			"type":"VEC3"
		},
		{
			"bufferView":64,
			"componentType":5126,
			"count":20,
			"type":"VEC2"
		},
		{
			"bufferView":65,
			"componentType":5126,
			"count":20,
			"type":"VEC3"
		},
		{
			"bufferView":66,
			"componentType":5123,
			"count":30,
			"type":"SCALAR"
		},
		{
			"bufferView":67,
			"componentType":5126,
			"count":4,
			"max":[
				0.0650000274181366,
				-0.11597488820552826,
				0.10308459401130676
			],
			"min":[
				-0.06499996781349182,
				-0.11597488820552826,
				-0.10171037167310715
			],
			"type":"VEC3"
		},
		{
			"bufferView":68,
			"componentType":5126,
			"count":4,
			"type":"VEC2"
		},
		{
			"bufferView":69,
			"componentType":5126,
			"count":4,
			"type":"VEC3"
		}
	],
	"bufferViews":[
		{
			"buffer":0,
			"byteLength":312,
			"byteOffset":0,
			"target":34962
		},
		{
			"buffer":0,
			"byteLength":208,
			"byteOffset":312,
			"target":34962
		},
		{
			"buffer":0,
			"byteLength":312,
			"byteOffset":520,
			"target":34962
		},
		{
			"buffer":0,
			"byteLength":84,
			"byteOffset":832,
			"target":34963
		},
		{
			"buffer":0,
			"byteLength":96,
			"byteOffset":916,
			"target":34962
		},
		{
			"buffer":0,
			"byteLength":64,
			"byteOffset":1012,
			"target":34962
		},
		{
			"buffer":0,
			"byteLength":96,
			"byteOffset":1076,
			"target":34962
		},
		{
			"buffer":0,
			"byteLength":24,
			"byteOffset":1172,
			"target":34963
		},
		{
			"buffer":0,
			"byteLength":216,
			"byteOffset":1196,
			"target":34962
		},
		{
			"buffer":0,
			"byteLength":144,
			"byteOffset":1412,
			"target":34962
		},
		{
			"buffer":0,
			"byteLength":216,
			"byteOffset":1556,
			"target":34962
		},
		{
			"buffer":0,
			"byteLength":60,
			"byteOffset":1772,
			"target":34963
		},
		{
			"buffer":0,
			"byteLength":312,
			"byteOffset":1832,
			"target":34962
		},
		{
			"buffer":0,
			"byteLength":208,
			"byteOffset":2144,
			"target":34962
		},
		{
			"buffer":0,
			"byteLength":312,
			"byteOffset":2352,
			"target":34962
		},
		{
			"buffer":0,
			"byteLength":84,
			"byteOffset":2664,
			"target":34963
		},
		{
			"buffer":0,
			"byteLength":216,
			"byteOffset":2748,
			"target":34962
		},
		{
			"buffer":0,
			"byteLength":144,
			"byteOffset":2964,
			"target":34962
		},
		{
			"buffer":0,
			"byteLength":216,
			"byteOffset":3108,
			"target":34962
		},
		{
			"buffer":0,
			"byteLength":60,
			"byteOffset":3324,
			"target":34963
		},
		{
			"buffer":0,
			"byteLength":96,
			"byteOffset":3384,
			"target":34962
		},
		{
			"buffer":0,
			"byteLength":64,
			"byteOffset":3480,
			"target":34962
		},
		{
			"buffer":0,
			"byteLength":96,
			"byteOffset":3544,
			"target":34962
		},
		{
			"buffer":0,
			"byteLength":624,
			"byteOffset":3640,
			"target":34962
		},
		{
			"buffer":0,
			"byteLength":416,
			"byteOffset":4264,
			"target":34962
		},
		{
			"buffer":0,
			"byteLength":624,
			"byteOffset":4680,
			"target":34962
		},
		{
			"buffer":0,
			"byteLength":168,
			"byteOffset":5304,
			"target":34963
		},
		{
			"buffer":0,
			"byteLength":504,
			"byteOffset":5472,
			"target":34962
		},
		{
			"buffer":0,
			"byteLength":336,
			"byteOffset":5976,
			"target":34962
		},
		{
			"buffer":0,
			"byteLength":504,
			"byteOffset":6312,
			"target":34962
		},
		{
			"buffer":0,
			"byteLength":132,
			"byteOffset":6816,
			"target":34963
		},
		{
			"buffer":0,
			"byteLength":408,
			"byteOffset":6948,
			"target":34962
		},
		{
			"buffer":0,
			"byteLength":272,
			"byteOffset":7356,
			"target":34962
		},
		{
			"buffer":0,
			"byteLength":408,
			"byteOffset":7628,
			"target":34962
		},
		{
			"buffer":0,
			"byteLength":132,
			"byteOffset":8036,
			"target":34963
		},
		{
			"buffer":0,
			"byteLength":1620,
			"byteOffset":8168,
			"target":34962
		},
		{
			"buffer":0,
			"byteLength":1080,
			"byteOffset":9788,
			"target":34962
		},
		{
			"buffer":0,
			"byteLength":1620,
			"byteOffset":10868,
			"target":34962
		},
		{
			"buffer":0,
			"byteLength":564,
			"byteOffset":12488,
			"target":34963
		},
		{
			"buffer":0,
			"byteLength":48,
			"byteOffset":13052,
			"target":34962
		},
		{
			"buffer":0,
			"byteLength":32,
			"byteOffset":13100,
			"target":34962
		},
		{
			"buffer":0,
			"byteLength":48,
			"byteOffset":13132,
			"target":34962
		},
		{
			"buffer":0,
			"byteLength":12,
			"byteOffset":13180,
			"target":34963
		},
		{
			"buffer":0,
			"byteLength":96,
			"byteOffset":13192,
			"target":34962
		},
		{
			"buffer":0,
			"byteLength":64,
			"byteOffset":13288,
			"target":34962
		},
		{
			"buffer":0,
			"byteLength":96,
			"byteOffset":13352,
			"target":34962
		},
		{
			"buffer":0,
			"byteLength":24,
			"byteOffset":13448,
			"target":34963
		},
		{
			"buffer":0,
			"byteLength":240,
			"byteOffset":13472,
			"target":34962
		},
		{
			"buffer":0,
			"byteLength":160,
			"byteOffset":13712,
			"target":34962
		},
		{
			"buffer":0,
			"byteLength":240,
			"byteOffset":13872,
			"target":34962
		},
		{
			"buffer":0,
			"byteLength":60,
			"byteOffset":14112,
			"target":34963
		},
		{
			"buffer":0,
			"byteLength":408,
			"byteOffset":14172,
			"target":34962
		},
		{
			"buffer":0,
			"byteLength":272,
			"byteOffset":14580,
			"target":34962
		},
		{
			"buffer":0,
			"byteLength":408,
			"byteOffset":14852,
			"target":34962
		},
		{
			"buffer":0,
			"byteLength":120,
			"byteOffset":15260,
			"target":34963
		},
		{
			"buffer":0,
			"byteLength":48,
			"byteOffset":15380,
			"target":34962
		},
		{
			"buffer":0,
			"byteLength":32,
			"byteOffset":15428,
			"target":34962
		},
		{
			"buffer":0,
			"byteLength":48,
			"byteOffset":15460,
			"target":34962
		},
		{
			"buffer":0,
			"byteLength":12,
			"byteOffset":15508,
			"target":34963
		},
		{
			"buffer":0,
			"byteLength":408,
			"byteOffset":15520,
			"target":34962
		},
		{
			"buffer":0,
			"byteLength":272,
			"byteOffset":15928,
			"target":34962
		},
		{
			"buffer":0,
			"byteLength":408,
			"byteOffset":16200,
			"target":34962
		},
		{
			"buffer":0,
			"byteLength":120,
			"byteOffset":16608,
			"target":34963
		},
		{
			"buffer":0,
			"byteLength":240,
			"byteOffset":16728,
			"target":34962
		},
		{
			"buffer":0,
			"byteLength":160,
			"byteOffset":16968,
			"target":34962
		},
		{
			"buffer":0,
			"byteLength":240,
			"byteOffset":17128,
			"target":34962
		},
		{
			"buffer":0,
			"byteLength":60,
			"byteOffset":17368,
			"target":34963
		},
		{
			"buffer":0,
			"byteLength":48,
			"byteOffset":17428,
			"target":34962
		},
		{
			"buffer":0,
			"byteLength":32,
			"byteOffset":17476,
			"target":34962
		},
		{
			"buffer":0,
			"byteLength":48,
			"byteOffset":17508,
			"target":34962
		}
	],
	"buffers":[
		{
			"byteLength":17556,
			"uri":"data:application/octet-stream;base64,"
		}
	]
}
